<?xml version="1.0" encoding="UTF-8" standalone="no"?>
<!DOCTYPE svg PUBLIC "-//W3C//DTD SVG 1.1//EN" "http://www.w3.org/Graphics/SVG/1.1/DTD/svg11.dtd">
<svg xmlns="http://www.w3.org/2000/svg" version="1.1" viewBox="0.00 0.00 1600.00 1056.00">
<path fill="#2f2f2f" d="
  M 904.25 61.62
  L 904.25 182.27
  A 0.76 0.76 0.0 0 1 903.87 182.93
  L 800.64 243.14
  A 0.76 0.76 0.0 0 1 799.88 243.14
  L 696.63 182.92
  A 0.76 0.76 0.0 0 1 696.25 182.26
  L 696.25 61.63
  A 0.76 0.76 0.0 0 1 696.63 60.97
  L 799.87 0.76
  A 0.76 0.76 0.0 0 1 800.63 0.76
  L 903.87 60.96
  A 0.76 0.76 0.0 0 1 904.25 61.62
  Z
  M 887.00 71.59
  A 0.70 0.70 0.0 0 0 886.65 70.99
  L 800.62 20.83
  A 0.70 0.70 0.0 0 0 799.92 20.83
  L 713.85 70.99
  A 0.70 0.70 0.0 0 0 713.50 71.59
  L 713.50 172.29
  A 0.70 0.70 0.0 0 0 713.85 172.89
  L 799.94 223.07
  A 0.70 0.70 0.0 0 0 800.64 223.07
  L 886.65 172.90
  A 0.70 0.70 0.0 0 0 887.00 172.30
  L 887.00 71.59
  Z"
/>
<path fill="#2f2f2f" d="
  M 574.75 390.48
  L 574.75 269.75
  A 0.63 0.63 0.0 0 1 575.06 269.21
  L 678.50 208.88
  A 0.63 0.63 0.0 0 1 679.14 208.88
  L 782.44 269.13
  A 0.63 0.63 0.0 0 1 782.75 269.67
  L 782.75 390.55
  A 0.63 0.63 0.0 0 1 782.44 391.09
  L 679.13 451.37
  A 0.63 0.63 0.0 0 1 678.49 451.37
  L 575.06 391.02
  A 0.63 0.63 0.0 0 1 574.75 390.48
  Z
  M 592.23 380.57
  A 0.59 0.59 0.0 0 0 592.52 381.08
  L 678.52 431.27
  A 0.59 0.59 0.0 0 0 679.12 431.27
  L 765.21 381.07
  A 0.59 0.59 0.0 0 0 765.50 380.56
  L 765.50 279.67
  A 0.59 0.59 0.0 0 0 765.21 279.16
  L 679.10 228.92
  A 0.59 0.59 0.0 0 0 678.50 228.92
  L 592.51 279.07
  A 0.59 0.59 0.0 0 0 592.22 279.58
  L 592.23 380.57
  Z"
/>
<path fill="#2f2f2f" d="
  M 817.75 390.63
  L 817.75 269.60
  A 0.49 0.49 0.0 0 1 817.99 269.18
  L 921.40 208.83
  A 0.49 0.49 0.0 0 1 921.90 208.83
  L 1025.51 269.24
  A 0.49 0.49 0.0 0 1 1025.75 269.66
  L 1025.75 390.56
  A 0.49 0.49 0.0 0 1 1025.51 390.98
  L 921.98 451.39
  A 0.49 0.49 0.0 0 1 921.48 451.39
  L 817.99 391.05
  A 0.49 0.49 0.0 0 1 817.75 390.63
  Z
  M 835.00 380.50
  A 0.70 0.70 0.0 0 0 835.35 381.10
  L 921.36 431.24
  A 0.70 0.70 0.0 0 0 922.06 431.24
  L 1007.90 381.16
  A 0.70 0.70 0.0 0 0 1008.25 380.56
  L 1008.25 279.65
  A 0.70 0.70 0.0 0 0 1007.90 279.05
  L 922.06 228.99
  A 0.70 0.70 0.0 0 0 921.36 228.99
  L 835.35 279.09
  A 0.70 0.70 0.0 0 0 835.00 279.69
  L 835.00 380.50
  Z"
/>
<path fill="#2f2f2f" d="
  M 0.00 565.98
  Q 69.50 566.01 139.00 566.00
  Q 154.48 566.00 170.44 572.02
  C 225.23 592.70 225.90 675.50 167.37 692.00
  A 0.14 0.14 0.0 0 0 167.38 692.28
  C 181.61 695.14 193.23 702.56 202.21 714.19
  C 226.66 745.84 219.16 795.79 183.44 815.95
  C 169.08 824.05 154.00 825.93 136.43 825.95
  Q 68.22 826.06 0.00 825.97
  L 0.00 565.98
  Z
  M 61.54 620.62
  L 61.46 663.32
  A 0.68 0.68 0.0 0 0 62.14 664.01
  L 125.66 664.12
  A 23.04 21.27 0.1 0 0 148.74 642.89
  L 148.74 641.37
  A 23.04 21.27 0.1 0 0 125.74 620.06
  L 62.22 619.95
  A 0.68 0.68 0.0 0 0 61.54 620.62
  Z
  M 145.06 729.94
  C 137.09 724.00 130.34 724.08 119.01 724.04
  Q 90.56 723.94 62.22 724.02
  A 0.72 0.72 0.0 0 0 61.50 724.74
  L 61.50 771.48
  Q 61.50 771.95 61.98 771.96
  Q 94.40 772.09 126.81 772.00
  C 137.61 771.97 149.13 767.67 152.27 756.27
  C 154.79 747.16 153.13 735.95 145.06 729.94
  Z"
/>
<path fill="#2f2f2f" d="
  M 1329.68 808.38
  Q 1300.79 836.10 1262.38 828.91
  C 1226.00 822.10 1203.57 794.05 1197.10 758.68
  C 1188.68 712.58 1200.89 655.07 1250.64 637.53
  C 1278.95 627.54 1307.84 633.79 1329.43 654.74
  Q 1330.00 655.30 1330.00 654.50
  L 1330.00 566.75
  A 0.75 0.75 0.0 0 1 1330.75 566.00
  L 1385.00 566.00
  A 0.25 0.25 0.0 0 1 1385.25 566.25
  L 1385.26 825.12
  A 0.63 0.63 0.0 0 1 1384.63 825.75
  L 1331.24 825.75
  Q 1329.97 825.75 1329.98 824.48
  L 1330.05 808.55
  Q 1330.05 808.02 1329.68 808.38
  Z
  M 1266.69 771.56
  C 1285.46 787.52 1314.32 781.58 1329.70 764.29
  Q 1330.01 763.93 1330.01 763.46
  L 1329.99 700.50
  Q 1329.99 700.04 1329.69 699.69
  C 1305.50 672.07 1261.35 678.38 1252.49 716.74
  C 1248.20 735.34 1251.22 758.41 1266.69 771.56
  Z"
/>
<path fill="#2f2f2f" d="
  M 692.00 676.72
  L 692.00 825.50
  Q 692.00 826.00 691.50 826.00
  L 631.12 826.00
  Q 630.50 826.00 630.50 825.37
  L 630.50 567.00
  Q 630.50 566.50 631.00 566.50
  L 686.79 566.50
  A 1.07 1.03 71.0 0 1 687.63 566.93
  L 800.75 720.20
  Q 801.25 720.87 801.25 720.03
  L 801.25 567.00
  A 0.50 0.50 0.0 0 1 801.75 566.50
  L 862.22 566.50
  Q 862.75 566.50 862.75 567.03
  L 862.75 825.50
  Q 862.75 826.00 862.25 826.00
  L 802.18 826.00
  Q 801.65 826.00 801.34 825.58
  L 692.48 676.56
  Q 692.00 675.91 692.00 676.72
  Z"
/>
<path fill="#2f2f2f" d="
  M 285.08 754.34
  C 294.64 783.74 325.09 790.21 352.04 783.03
  Q 369.88 778.29 383.11 764.68
  Q 383.48 764.30 383.77 764.73
  L 408.40 800.35
  A 0.59 0.59 0.0 0 1 408.33 801.11
  C 380.74 827.98 338.75 835.54 302.01 827.92
  C 199.79 806.73 202.91 654.36 304.77 634.75
  C 338.02 628.35 372.46 638.32 394.42 664.36
  C 415.87 689.79 418.69 720.94 417.96 753.09
  Q 417.95 753.75 417.29 753.75
  L 285.52 753.75
  A 0.46 0.45 -8.8 0 0 285.08 754.34
  Z
  M 364.93 713.51
  C 362.56 690.04 342.02 676.14 319.29 678.40
  C 300.03 680.31 286.73 694.33 283.55 713.47
  Q 283.46 714.00 284.00 714.00
  L 364.49 714.00
  Q 364.97 714.00 364.93 713.51
  Z"
/>
<path fill="#2f2f2f" d="
  M 571.81 824.14
  C 542.06 833.78 507.84 833.46 479.51 819.35
  C 440.69 800.01 423.72 757.54 429.84 716.08
  C 445.18 612.18 593.43 601.32 616.77 707.51
  Q 621.26 727.91 619.36 753.38
  Q 619.33 753.75 618.96 753.75
  L 487.27 753.75
  A 0.52 0.51 -9.6 0 0 486.78 754.43
  Q 495.44 778.99 521.26 784.55
  C 542.38 789.09 570.07 781.49 584.34 764.67
  A 0.74 0.74 0.0 0 1 585.52 764.73
  L 610.06 800.21
  A 0.86 0.85 51.4 0 1 609.94 801.32
  C 598.66 811.91 586.60 819.35 571.81 824.14
  Z
  M 566.71 713.50
  C 561.97 666.83 492.53 665.96 485.27 713.45
  Q 485.18 714.00 485.74 714.00
  L 566.26 714.00
  A 0.45 0.45 0.0 0 0 566.71 713.50
  Z"
/>
<path fill="#2f2f2f" d="
  M 931.51 754.13
  C 938.17 776.88 960.67 787.58 983.23 785.69
  C 1000.97 784.20 1016.92 777.66 1029.41 764.64
  Q 1029.79 764.25 1030.09 764.69
  L 1054.80 800.42
  Q 1055.08 800.83 1054.72 801.16
  C 1036.13 818.78 1014.44 827.10 989.34 829.89
  C 935.62 835.86 886.87 809.60 875.29 754.19
  C 866.82 713.64 882.83 667.63 920.47 646.18
  C 956.85 625.44 1007.96 628.44 1037.33 660.42
  C 1054.58 679.20 1063.32 704.34 1064.13 729.44
  Q 1064.42 738.47 1064.23 753.27
  Q 1064.23 753.75 1063.75 753.75
  L 931.79 753.75
  Q 931.40 753.75 931.51 754.13
  Z
  M 1011.23 713.48
  C 1008.95 690.36 988.37 675.99 965.88 678.27
  C 946.52 680.23 932.80 694.43 929.92 713.59
  Q 929.86 714.00 930.27 714.00
  L 1010.76 714.00
  Q 1011.28 714.00 1011.23 713.48
  Z"
/>
<path fill="#2f2f2f" d="
  M 1129.75 656.23
  Q 1129.75 657.30 1130.51 656.55
  C 1144.68 642.60 1163.68 633.55 1183.72 632.98
  Q 1184.23 632.97 1184.23 633.47
  L 1184.30 686.29
  Q 1184.30 686.77 1183.81 686.70
  C 1165.71 684.00 1143.49 688.68 1130.48 702.64
  A 2.71 2.68 -23.7 0 0 1129.75 704.48
  L 1129.75 825.25
  Q 1129.75 825.75 1129.25 825.75
  L 1075.50 825.75
  A 0.50 0.50 0.0 0 1 1075.00 825.25
  L 1075.00 638.00
  A 0.50 0.50 0.0 0 1 1075.50 637.50
  L 1129.25 637.50
  A 0.50 0.50 0.0 0 1 1129.75 638.00
  L 1129.75 656.23
  Z"
/>
<path fill="#2f2f2f" d="
  M 1497.31 752.52
  A 0.30 0.30 0.0 0 0 1497.87 752.52
  L 1540.22 638.60
  Q 1540.44 638.00 1541.09 638.00
  L 1599.49 638.00
  A 0.35 0.34 -79.5 0 1 1599.81 638.47
  Q 1556.18 746.51 1512.54 854.52
  C 1502.13 880.28 1487.59 895.42 1459.51 900.49
  Q 1435.11 904.91 1410.87 898.37
  Q 1410.36 898.23 1410.44 897.71
  L 1418.82 848.21
  Q 1418.94 847.50 1419.61 847.75
  C 1423.62 849.26 1427.86 851.26 1431.60 852.04
  C 1441.54 854.13 1454.41 853.26 1459.38 842.73
  Q 1464.15 832.61 1468.55 822.34
  Q 1468.79 821.79 1468.57 821.24
  L 1395.81 638.55
  Q 1395.59 638.00 1396.18 638.00
  L 1453.96 638.00
  A 0.62 0.61 79.5 0 1 1454.53 638.40
  L 1497.31 752.52
  Z"
/>
<path fill="#2f2f2f" d="
  M 433.36 997.04
  A 0.37 0.36 23.0 0 0 433.99 996.79
  Q 434.02 985.83 433.99 974.75
  C 433.97 970.13 442.48 968.84 442.49 976.77
  Q 442.52 1004.50 442.49 1032.24
  A 4.01 4.01 0.0 0 1 438.48 1036.25
  C 430.78 1036.25 419.99 1037.26 413.13 1035.37
  C 391.85 1029.48 390.92 997.53 412.02 991.15
  Q 423.96 987.54 433.36 997.04
  Z
  M 419.6517 1028.8598
  A 15.60 14.78 89.7 0 0 434.3498 1013.1826
  A 15.60 14.78 89.7 0 0 419.4883 997.6602
  A 15.60 14.78 89.7 0 0 404.7902 1013.3374
  A 15.60 14.78 89.7 0 0 419.6517 1028.8598
  Z"
/>
<path fill="#2f2f2f" d="
  M 618.98 996.74
  Q 619.05 985.99 618.99 975.25
  C 618.97 970.16 627.50 968.63 627.50 976.53
  Q 627.51 1004.85 627.50 1032.70
  A 3.56 3.56 0.0 0 1 623.94 1036.25
  C 615.65 1036.24 604.22 1037.39 596.91 1034.91
  C 585.99 1031.20 580.30 1020.42 582.01 1009.23
  C 584.75 991.30 605.27 983.57 618.40 996.97
  Q 618.97 997.55 618.98 996.74
  Z
  M 604.7317 1028.8798
  A 15.61 14.77 89.7 0 0 619.4198 1013.1927
  A 15.61 14.77 89.7 0 0 604.5683 997.6602
  A 15.61 14.77 89.7 0 0 589.8802 1013.3473
  A 15.61 14.77 89.7 0 0 604.7317 1028.8798
  Z"
/>
<path fill="#2f2f2f" d="
  M 1479.50 997.00
  L 1479.50 974.73
  A 3.12 3.09 70.7 0 1 1480.65 972.31
  Q 1484.67 969.05 1487.89 973.70
  A 0.42 0.39 28.8 0 1 1487.97 973.94
  L 1488.02 1032.38
  A 3.88 3.87 0.0 0 1 1484.14 1036.25
  C 1476.01 1036.24 1464.70 1037.27 1457.76 1035.10
  C 1442.27 1030.26 1437.86 1011.46 1446.56 998.82
  C 1454.27 987.64 1469.97 987.75 1479.03 997.19
  Q 1479.50 997.68 1479.50 997.00
  Z
  M 1464.8319 1028.8785
  A 15.62 14.80 90.8 0 0 1479.8486 1013.4666
  A 15.62 14.80 90.8 0 0 1465.2681 997.6415
  A 15.62 14.80 90.8 0 0 1450.2514 1013.0534
  A 15.62 14.80 90.8 0 0 1464.8319 1028.8785
  Z"
/>
<path fill="#2f2f2f" d="
  M 203.37 999.86
  Q 202.98 1008.79 203.32 1017.77
  C 203.56 1024.23 205.40 1028.73 212.74 1027.65
  Q 213.20 1027.58 213.59 1027.83
  C 218.62 1031.01 215.40 1036.41 210.23 1036.04
  C 196.18 1035.03 195.05 1025.24 195.01 1012.85
  Q 194.96 996.34 195.03 979.80
  C 195.05 975.06 203.22 974.13 203.24 980.87
  Q 203.25 986.23 203.25 991.58
  Q 203.25 992.13 203.80 992.17
  Q 207.43 992.45 211.00 992.18
  C 214.07 991.95 215.59 997.02 212.56 998.70
  C 210.68 999.75 206.31 999.22 203.98 999.27
  Q 203.39 999.28 203.37 999.86
  Z"
/>
<path fill="#2f2f2f" d="
  M 764.01 1035.69
  C 752.94 1037.74 746.56 1029.11 746.53 1019.03
  Q 746.47 999.16 746.51 979.24
  C 746.51 975.81 752.05 975.02 753.89 977.81
  C 755.55 980.35 754.73 988.42 754.77 991.66
  Q 754.78 992.22 755.35 992.23
  C 758.32 992.28 767.31 990.87 765.43 996.95
  C 764.40 1000.27 758.08 999.16 755.31 999.31
  Q 754.78 999.34 754.77 999.88
  Q 754.71 1008.69 754.75 1017.45
  C 754.78 1024.02 756.44 1028.74 763.99 1027.64
  A 1.33 1.29 -33.1 0 1 764.86 1027.81
  C 768.29 1029.84 768.35 1034.88 764.01 1035.69
  Z"
/>
<path fill="#2f2f2f" d="
  M 1136.19 1033.06
  C 1130.71 1028.99 1130.08 1023.59 1130.03 1016.40
  Q 1129.85 987.28 1130.04 979.56
  C 1130.13 975.80 1135.88 974.75 1137.69 978.01
  C 1139.01 980.40 1138.21 988.62 1138.29 991.70
  Q 1138.30 992.27 1138.86 992.26
  C 1141.66 992.21 1150.83 991.04 1149.22 996.71
  C 1148.19 1000.36 1141.74 999.14 1138.85 999.33
  Q 1138.33 999.37 1138.32 999.88
  Q 1138.07 1009.27 1138.35 1018.58
  C 1138.54 1024.65 1140.91 1028.59 1147.52 1027.63
  A 1.30 1.29 56.1 0 1 1148.38 1027.80
  C 1152.31 1030.08 1151.77 1035.01 1147.32 1035.86
  Q 1141.46 1036.98 1136.19 1033.06
  Z"
/>
<path fill="#2f2f2f" d="
  M 1371.38 999.86
  Q 1370.95 1009.18 1371.35 1018.53
  C 1371.58 1023.99 1373.80 1029.03 1380.10 1027.51
  A 2.97 2.96 75.8 0 1 1383.67 1029.64
  C 1384.93 1034.38 1381.87 1036.39 1377.60 1035.99
  C 1364.10 1034.72 1363.05 1025.02 1363.01 1013.01
  Q 1362.97 996.77 1363.02 980.49
  C 1363.04 974.58 1371.29 974.26 1371.26 980.93
  Q 1371.23 986.25 1371.26 991.58
  Q 1371.26 992.13 1371.82 992.17
  Q 1375.44 992.45 1379.01 992.18
  C 1382.07 991.95 1383.59 997.02 1380.56 998.70
  C 1378.68 999.75 1374.31 999.22 1371.98 999.27
  Q 1371.40 999.28 1371.38 999.86
  Z"
/>
<path fill="#2f2f2f" d="
  M 144.91 1030.76
  C 144.77 1037.98 136.50 1037.54 136.50 1031.56
  Q 136.50 1012.54 136.50 993.97
  A 3.97 3.97 0.0 0 1 140.44 990.00
  Q 148.99 989.95 157.98 990.14
  C 183.16 990.67 178.98 1013.44 178.99 1030.99
  C 178.99 1037.68 170.95 1037.79 170.73 1031.54
  C 170.46 1024.21 171.94 1010.73 169.25 1004.66
  C 165.34 995.81 150.67 995.27 146.11 1003.98
  Q 144.92 1006.25 144.97 1010.15
  Q 145.11 1020.49 144.91 1030.76
  Z"
/>
<path fill="#2f2f2f" d="
  M 234.69 995.50
  A 0.33 0.32 -17.6 0 0 235.24 995.78
  Q 243.31 987.89 254.43 990.83
  C 259.51 992.18 259.07 998.96 253.72 997.92
  C 247.75 996.75 238.53 997.29 235.72 1003.55
  Q 234.77 1005.66 234.76 1010.69
  Q 234.75 1021.82 234.73 1032.93
  C 234.72 1036.50 226.48 1038.23 226.49 1031.01
  Q 226.52 1013.18 226.48 995.38
  C 226.47 988.11 235.75 989.35 234.69 995.50
  Z"
/>
<path fill="#2f2f2f" d="
  M 535.75 1030.89
  C 535.76 1038.03 527.54 1037.20 527.52 1032.28
  Q 527.46 1012.58 527.51 993.78
  A 3.76 3.76 0.0 0 1 531.23 990.03
  C 544.73 989.89 562.87 986.95 568.51 1002.52
  C 571.18 1009.89 570.01 1022.14 570.00 1030.83
  C 569.98 1038.07 561.58 1037.42 561.50 1031.44
  C 561.40 1024.16 562.95 1011.65 560.39 1005.23
  C 556.72 996.05 540.61 994.72 536.74 1004.49
  C 534.38 1010.43 535.74 1023.96 535.75 1030.89
  Z"
/>
<path fill="#2f2f2f" d="
  M 786.63 995.71
  Q 795.07 987.63 806.23 990.96
  C 810.75 992.31 810.35 998.72 805.25 998.04
  C 798.65 997.15 790.69 996.81 787.39 1003.12
  C 784.52 1008.63 786.01 1023.82 786.01 1030.68
  C 786.01 1038.10 777.79 1037.47 777.77 1031.65
  Q 777.72 1013.90 777.76 996.13
  C 777.79 988.29 786.43 988.77 786.00 995.41
  A 0.38 0.37 70.2 0 0 786.63 995.71
  Z"
/>
<path fill="#2f2f2f" d="
  M 1079.91 1030.61
  C 1079.78 1037.97 1071.53 1037.19 1071.52 1032.41
  Q 1071.47 1012.64 1071.51 993.76
  A 3.76 3.75 -0.2 0 1 1075.24 990.02
  C 1088.80 989.91 1107.01 986.92 1112.58 1002.67
  C 1115.20 1010.09 1113.99 1022.59 1113.99 1031.45
  C 1113.98 1036.53 1107.72 1037.61 1106.06 1033.86
  Q 1105.55 1032.70 1105.53 1029.45
  Q 1105.48 1019.73 1105.48 1010.02
  C 1105.49 996.69 1085.92 993.23 1080.91 1004.18
  Q 1079.94 1006.29 1079.99 1010.95
  Q 1080.09 1020.79 1079.91 1030.61
  Z"
/>
<path fill="#2f2f2f" d="
  M 1276.71 995.54
  Q 1284.29 988.30 1295.04 990.66
  C 1301.02 991.98 1300.31 999.28 1294.76 998.02
  C 1288.87 996.68 1280.00 997.32 1277.05 1003.41
  Q 1276.03 1005.53 1276.01 1010.38
  Q 1275.98 1020.45 1276.01 1030.52
  C 1276.02 1037.97 1267.77 1037.41 1267.76 1032.11
  Q 1267.75 1013.74 1267.74 995.35
  C 1267.74 990.92 1271.08 989.07 1274.91 991.44
  Q 1275.44 991.77 1275.56 992.39
  L 1276.15 995.36
  Q 1276.27 995.96 1276.71 995.54
  Z"
/>
<path fill="#2f2f2f" d="
  M 269.37 1016.75
  C 270.97 1029.43 285.90 1031.54 294.99 1025.90
  C 299.26 1023.26 304.31 1028.67 299.16 1031.92
  Q 292.60 1036.06 285.25 1036.25
  C 253.97 1037.06 253.36 989.83 284.33 990.31
  Q 298.89 990.53 303.56 1005.19
  C 304.42 1007.90 305.87 1016.25 300.93 1016.24
  Q 285.37 1016.21 269.79 1016.27
  Q 269.31 1016.27 269.37 1016.75
  Z
  M 269.60 1009.63
  L 296.60 1009.39
  A 0.14 0.14 0.0 0 0 296.74 1009.25
  L 296.74 1009.20
  A 13.59 11.83 -0.5 0 0 283.05 997.49
  L 282.95 997.49
  A 13.59 11.83 -0.5 0 0 269.46 1009.44
  L 269.46 1009.49
  A 0.14 0.14 0.0 0 0 269.60 1009.63
  Z"
/>
<path fill="#2f2f2f" d="
  M 323.78 1029.48
  Q 323.69 1040.53 323.77 1051.75
  C 323.81 1056.47 315.30 1057.20 315.28 1050.67
  Q 315.20 1023.89 315.29 997.11
  C 315.31 992.93 315.32 990.21 320.48 990.23
  C 328.36 990.27 339.01 989.24 345.71 991.47
  C 367.48 998.73 365.82 1032.73 342.63 1036.02
  Q 332.20 1037.50 324.25 1029.29
  A 0.27 0.27 0.0 0 0 323.78 1029.48
  Z
  M 338.4381 1028.8785
  A 15.62 14.79 89.2 0 0 353.0086 1013.0535
  A 15.62 14.79 89.2 0 0 338.0019 997.6415
  A 15.62 14.79 89.2 0 0 323.4314 1013.4665
  A 15.62 14.79 89.2 0 0 338.4381 1028.8785
  Z"
/>
<path fill="#2f2f2f" d="
  M 720.97 1017.82
  C 714.55 1015.58 701.03 1014.30 698.87 1006.12
  C 693.78 986.91 728.35 986.10 732.68 998.55
  C 733.43 1000.70 731.18 1002.67 728.97 1002.63
  C 726.49 1002.59 722.78 999.29 721.19 998.58
  Q 715.89 996.21 709.58 998.62
  C 703.83 1000.82 706.83 1007.02 711.47 1007.88
  C 719.91 1009.44 735.55 1012.29 733.51 1024.57
  C 730.95 1040.03 708.91 1037.46 699.61 1031.73
  C 692.62 1027.42 698.97 1020.34 703.63 1024.30
  Q 711.00 1030.58 720.38 1028.15
  C 726.82 1026.48 727.23 1020.01 720.97 1017.82
  Z"
/>
<path fill="#2f2f2f" d="
  M 865.2121 1036.3983
  A 23.16 23.09 87.0 0 1 840.9416 1014.4784
  A 23.16 23.09 87.0 0 1 862.7879 990.1417
  A 23.16 23.09 87.0 0 1 887.0584 1012.0616
  A 23.16 23.09 87.0 0 1 865.2121 1036.3983
  Z
  M 863.9927 1028.9200
  A 15.67 14.83 90.1 0 0 878.8500 1013.2759
  A 15.67 14.83 90.1 0 0 864.0473 997.5800
  A 15.67 14.83 90.1 0 0 849.1900 1013.2241
  A 15.67 14.83 90.1 0 0 863.9927 1028.9200
  Z"
/>
<path fill="#2f2f2f" d="
  M 963.74 1001.25
  C 962.11 1005.80 967.51 1007.66 970.95 1008.40
  Q 976.94 1009.70 982.66 1011.84
  C 991.14 1015.02 993.54 1024.72 987.25 1031.38
  C 976.82 1042.43 945.19 1031.55 955.23 1024.08
  C 959.11 1021.20 960.80 1024.80 963.39 1026.30
  Q 970.49 1030.42 978.26 1027.85
  C 984.97 1025.64 983.08 1019.54 977.46 1017.63
  C 972.53 1015.94 965.75 1015.16 960.48 1011.77
  C 954.10 1007.66 953.58 999.21 959.33 994.36
  C 967.50 987.47 981.41 989.66 988.50 996.18
  C 991.48 998.92 989.12 1003.42 985.05 1002.49
  Q 984.08 1002.27 981.98 1000.77
  Q 974.97 995.72 966.69 998.67
  Q 964.36 999.50 963.74 1001.25
  Z"
/>
<path fill="#2f2f2f" d="
  M 1167.12 1016.77
  C 1168.91 1028.80 1183.02 1031.89 1192.27 1026.21
  C 1197.10 1023.24 1201.93 1028.63 1197.51 1031.53
  C 1181.66 1041.93 1158.79 1034.09 1159.15 1013.13
  C 1159.64 984.26 1201.04 981.33 1202.16 1011.55
  C 1202.30 1015.17 1200.49 1016.26 1197.03 1016.25
  Q 1182.30 1016.21 1167.55 1016.27
  Q 1167.05 1016.27 1167.12 1016.77
  Z
  M 1167.52 1009.68
  L 1194.40 1009.64
  A 0.14 0.14 0.0 0 0 1194.54 1009.50
  L 1194.54 1009.47
  A 13.50 12.05 -0.1 0 0 1181.02 997.44
  L 1180.86 997.44
  A 13.50 12.05 -0.1 0 0 1167.38 1009.51
  L 1167.38 1009.54
  A 0.14 0.14 0.0 0 0 1167.52 1009.68
  Z"
/>
<path fill="#2f2f2f" d="
  M 1246.44 1027.50
  C 1232.28 1045.89 1207.48 1033.23 1209.23 1011.70
  C 1211.31 986.08 1246.37 982.32 1253.68 1005.67
  Q 1255.04 1010.01 1255.02 1019.09
  C 1255.01 1024.99 1255.41 1032.13 1254.30 1037.15
  C 1249.92 1057.14 1224.34 1060.30 1212.21 1045.78
  C 1208.88 1041.79 1214.78 1037.17 1219.20 1042.01
  C 1225.35 1048.75 1237.86 1049.50 1243.46 1041.94
  Q 1247.74 1036.16 1246.59 1027.54
  Q 1246.57 1027.32 1246.44 1027.50
  Z
  M 1232.0353 1028.9199
  A 15.68 14.84 90.2 0 0 1246.9299 1013.2918
  A 15.68 14.84 90.2 0 0 1232.1447 997.5601
  A 15.68 14.84 90.2 0 0 1217.2501 1013.1882
  A 15.68 14.84 90.2 0 0 1232.0353 1028.9199
  Z"
/>
<path fill="#2f2f2f" d="
  M 1343.63 1036.35
  C 1330.91 1036.86 1311.89 1039.43 1305.22 1024.55
  C 1298.10 1008.68 1307.13 989.91 1325.80 990.36
  C 1338.31 990.67 1347.54 999.40 1348.18 1012.08
  Q 1348.58 1019.76 1348.39 1031.50
  C 1348.34 1034.89 1347.12 1036.21 1343.63 1036.35
  Z
  M 1325.4555 1028.8899
  A 15.62 14.81 90.2 0 0 1340.3199 1013.3217
  A 15.62 14.81 90.2 0 0 1325.5645 997.6501
  A 15.62 14.81 90.2 0 0 1310.7001 1013.2183
  A 15.62 14.81 90.2 0 0 1325.4555 1028.8899
  Z"
/>
<path fill="#2f2f2f" d="
  M 1400.13 1016.76
  C 1402.08 1028.96 1416.22 1031.94 1425.59 1026.00
  C 1429.94 1023.25 1435.43 1028.44 1429.58 1032.10
  C 1416.13 1040.53 1396.25 1035.70 1392.77 1018.76
  C 1386.07 986.20 1434.14 978.43 1435.15 1011.52
  C 1435.26 1015.22 1433.57 1016.25 1430.03 1016.24
  Q 1415.30 1016.21 1400.55 1016.27
  Q 1400.05 1016.27 1400.13 1016.76
  Z
  M 1400.50 1009.63
  L 1427.38 1009.53
  A 0.15 0.15 0.0 0 0 1427.53 1009.38
  L 1427.53 1009.32
  A 13.40 11.91 -0.2 0 0 1414.09 997.46
  L 1413.71 997.46
  A 13.40 11.91 -0.2 0 0 1400.35 1009.42
  L 1400.35 1009.48
  A 0.15 0.15 0.0 0 0 1400.50 1009.63
  Z"
/>
<rect fill="#2f2f2f" x="112.02" y="990.51" width="8.48" height="45.48" rx="4.15"/>
<rect fill="#2f2f2f" x="374.74" y="990.52" width="8.48" height="45.46" rx="4.14"/>
<rect fill="#2f2f2f" x="503.00" y="990.51" width="8.50" height="45.48" rx="4.15"/>
<path fill="#2f2f2f" d="
  M 680.42 1036.48
  C 665.89 1036.59 643.01 1039.79 641.87 1017.80
  Q 641.55 1011.50 641.78 994.44
  C 641.85 989.85 647.84 989.29 649.57 992.62
  Q 650.26 993.96 650.25 997.51
  Q 650.20 1007.58 650.32 1017.68
  C 650.46 1029.49 668.64 1032.58 674.27 1023.31
  Q 675.67 1021.01 675.78 1016.29
  Q 676.02 1005.79 676.02 995.29
  C 676.02 988.62 684.23 989.08 684.24 994.68
  Q 684.26 1013.95 684.25 1032.62
  A 3.87 3.86 89.9 0 1 680.42 1036.48
  Z"
/>
<rect fill="#2f2f2f" x="819.02" y="990.51" width="8.48" height="45.48" rx="4.13"/>
<path fill="#2f2f2f" d="
  M 919.01 1036.54
  C 895.21 1036.56 898.59 1011.22 898.77 995.86
  C 898.85 988.36 907.23 988.80 907.23 995.64
  Q 907.23 1005.81 907.30 1015.98
  C 907.37 1026.12 916.37 1030.91 925.34 1027.75
  C 931.87 1025.46 932.97 1021.25 932.99 1014.44
  Q 933.01 1004.59 933.00 994.75
  C 932.99 988.82 941.47 988.44 941.48 996.65
  Q 941.52 1014.33 941.49 1032.24
  A 4.24 4.24 0.0 0 1 937.27 1036.48
  Q 928.51 1036.53 919.01 1036.54
  Z"
/>
<rect fill="#2f2f2f" x="1047.00" y="990.51" width="8.50" height="45.48" rx="4.15"/>
<path fill="#2f2f2f" d="
  M 454.34 1030.72
  C 454.77 1022.98 466.34 1024.58 466.15 1033.25
  C 466.05 1037.62 462.73 1049.92 457.11 1050.28
  C 455.29 1050.40 454.01 1048.48 454.81 1047.05
  C 456.16 1044.63 459.40 1040.78 458.29 1037.95
  C 457.25 1035.30 454.14 1034.43 454.34 1030.72
  Z"
/>
<path fill="#2f2f2f" d="
  M 1000.03 1034.97
  C 991.90 1026.57 1011.02 1020.21 1010.26 1033.75
  C 1010.04 1037.71 1006.21 1050.79 1000.73 1050.33
  A 2.28 2.28 0.0 0 1 998.91 1047.00
  C 1001.31 1042.46 1004.86 1039.97 1000.03 1034.97
  Z"
/>
</svg>
